<svg xmlns="http://www.w3.org/2000/svg" viewBox="0 0 24 24" id="webpack"><path d="M12 24a.499.499 0 0 1-.24-.062l-10.5-5.75A.498.498 0 0 1 1 17.75V6.25c0-.183.1-.351.26-.438l10.5-5.75a.499.499 0 0 1 .48 0l10.5 5.75c.16.087.26.255.26.438v11.5c0 .183-.1.351-.26.438l-10.5 5.75A.499.499 0 0 1 12 24zM2 17.454l10 5.476 10-5.476V6.546L12 1.07 2 6.546v10.908zm20.5.296h.01-.01z"></path><path d="M1.5 18.25a.5.5 0 0 1-.24-.939l4-2.19a.5.5 0 0 1 .481.877l-4 2.19a.5.5 0 0 1-.241.062zM12 12.5a.5.5 0 0 1-.24-.939l10.5-5.75a.5.5 0 1 1 .481.877l-10.5 5.75A.5.5 0 0 1 12 12.5z"></path><path d="M12 20a.496.496 0 0 1-.25-.067l-6.5-3.75A.5.5 0 0 1 5 15.75v-7.5a.5.5 0 0 1 .25-.433l6.5-3.75a.497.497 0 0 1 .5 0l6.5 3.75a.5.5 0 0 1 .25.433v7.5a.5.5 0 0 1-.25.433l-6.5 3.75A.496.496 0 0 1 12 20zm-6-4.539 6 3.462 6-3.462V8.539l-6-3.462-6 3.462v6.922zm12.5.289h.01-.01z"></path><path d="M12 12.5a.494.494 0 0 1-.24-.062l-10.5-5.75a.499.499 0 1 1 .48-.876l10.5 5.75a.5.5 0 0 1-.24.938zm10.5 5.75a.494.494 0 0 1-.24-.062l-4-2.19a.5.5 0 0 1 .481-.877l4 2.19a.5.5 0 0 1-.241.939z"></path><path d="M12 24a.5.5 0 0 1-.5-.5V12a.5.5 0 0 1 1 0v11.5a.5.5 0 0 1-.5.5zm0-19a.5.5 0 0 1-.5-.5v-4a.5.5 0 0 1 1 0v4a.5.5 0 0 1-.5.5z"></path></svg>